<svg width="150" height="396" viewBox="0 0 150 396" fill="none" xmlns="http://www.w3.org/2000/svg">
<path d="M63.9 125.36C54.59 132.03 17.09 162.89 10.91 164.66C9.36001 165.11 7.94001 165.2 6.36001 165.04C6.52001 161.29 4.34001 157.84 4.35001 154.12C4.43001 125.7 10.38 93.57 12.27 64.8C13.01 53.59 9.60001 20.34 16.28 13.24C20.72 8.53999 46.77 -1.11001 51.99 2.34999L30.18 125.36C49.48 109.25 69.67 92.38 93.66 83.7L65.74 215.5C79.45 222.06 99.62 230.27 111.39 239.61C117.49 244.45 120.47 247.68 114.24 254.1C109.52 258.97 61.51 297.47 57.95 294.03C58.9 282.93 88.2 262.45 89.55 255.08C91.07 246.75 49.58 231.16 47.98 219.52C50.73 188.21 60.31 157.97 65.88 127.35C65.83 124.96 65.17 124.3 63.9 125.37V125.36Z" fill="#ECD189"/>
</svg>
