<svg width="150" height="396" viewBox="0 0 150 396" fill="none" xmlns="http://www.w3.org/2000/svg">
<path d="M77.8 379.36C74.78 379.63 74.64 374.52 73.99 372.26C66.39 345.7 62.1 317.87 54.43 291.3L91.66 253.35C91.58 250.42 52.67 227.99 50.46 224.16C50.01 223.38 49.74 222.6 49.87 221.67L65.88 127.34C50.65 134.87 26.22 160.66 11.25 164.99C7.51999 166.07 8.63999 164.42 8.33999 162.1C6.05999 144.63 11.62 118.93 12.4 100.63C13.55 73.5599 12.38 46.1899 14.21 19.0999C11.57 9.52995 48.12 0.449947 50.01 2.31995L30.17 125.34L84.32 89.2099L91.68 87.66C93.41 123.58 80.27 157.65 74.41 192.41C73.46 198.05 70.85 208.68 71.79 213.63C73.15 220.83 115.98 241.39 115.24 249.03C114.35 258.25 81.42 284.68 76.92 296.05C76.24 297.29 77.8 298.48 77.8 298.99V379.36Z" fill="#ECD189"/>
<path d="M126.94 326.24C127.91 327.22 128.84 332.2 128.27 333.78C127.51 335.9 102.03 366.82 99.74 368.56C97.06 370.6 95.47 372.16 91.69 371.4C89.65 369.79 110.63 325.51 112.59 323.79C115.32 321.39 125.42 324.7 126.94 326.24Z" fill="#ECD28B"/>
</svg>
