<svg width="150" height="396" viewBox="0 0 150 396" fill="none" xmlns="http://www.w3.org/2000/svg">
<g clip-path="url(#clip0_27_173)">
<path d="M59.93 131.31C53.29 136.1 5.43001 171.14 2.40001 169.01C-3.89999 130.5 6.05001 91.22 10.3 52.91C11.21 44.73 10.05 16.6 15.16 12.13C17.93 9.69998 48.73 -0.990024 50 0.349976L34.15 121.39C41.93 115.38 87.91 72.07 95.65 79.71C96.95 125.15 77.05 167.58 68.11 211.47C76.03 217.68 85.46 221.58 93.51 227.71C101.41 233.72 107.17 241.97 115.48 247.38C103.85 263.79 89.74 278.38 74.89 291.94C78.17 319.11 78.81 346.94 77.78 374.42C77.69 376.82 79.27 381.8 75.82 381.33C71.96 371.03 69.36 360.33 66.84 349.62C63.89 337.07 55.32 301.94 56.02 291.15C56.68 280.91 80.86 261.55 87.67 253.36L43.93 225.34C46.58 194.08 56.34 163.98 61.91 133.3C61.86 130.9 61.2 130.24 59.93 131.32V131.31Z" fill="#ECD189"/>
<path d="M148.99 365.15C147.68 367.38 103.8 387.17 101.63 385.3C104.22 379.07 110.88 371.38 115.46 366.41C120.3 361.15 134.83 345.73 142 347.78C145.3 348.72 150.55 362.51 148.99 365.15Z" fill="#ECD28B"/>
<path d="M55.96 369.44C48.47 362.5 39.33 353.61 33.11 345.65C27.49 338.46 13.81 324.6 25.66 318.31C37.07 312.25 34.96 317.15 37.68 323.17C44.07 337.29 50.72 351.77 57.95 365.47C59.23 368.74 59.94 370.67 55.97 369.44H55.96Z" fill="#ECD28B"/>
</g>
<defs>
<clipPath id="clip0_27_173">
<rect width="149.81" height="395.46" fill="white"/>
</clipPath>
</defs>
</svg>
