<svg width="150" height="396" viewBox="0 0 150 396" fill="none" xmlns="http://www.w3.org/2000/svg">
<g clip-path="url(#clip0_27_188)">
<path d="M50 2.33996L32.15 121.37L95.65 77.74C103.29 86.6199 71.96 191.17 68.03 208.49C75.89 213.5 114.86 242.77 114.85 249.38C114.83 258.29 76.45 290.04 74.25 297.4C71.49 306.61 77.31 326 77.89 336.6C78.66 350.74 77.16 365.19 77.8 379.34C73.32 380.17 74.63 379.14 73.37 376.82C68.83 368.5 55.2 304.53 55.84 295.05C56.66 283 77.64 264.65 85.71 255.33L44.41 225.39L61.91 133.29C59.91 130.72 18.14 169.27 7.84 168.64C6.37 168.55 2.71 167.35 2.31 165.69L4.39 78.74C9.09 60.9 5.34 35.02 11.22 18.1C13.97 10.18 41.2 3.78996 50.01 2.32996L50 2.33996Z" fill="#ECD189"/>
<path d="M131.11 330.01C134.14 335.21 118.3 347.23 114.49 351.56C110.29 356.32 103.94 366.39 99.72 370.08C97.5 372.03 96.44 371.59 93.69 371.42C91.83 369.76 107.88 327.28 110.15 324.38C111.08 323.19 115.93 320.35 117.63 320.69C118.43 320.85 130.7 329.31 131.11 330.02V330.01Z" fill="#ECD28B"/>
<path d="M53.97 395.22L4.7 371.1L6.37 353.56C18.83 357.61 28.02 366.6 38.15 374.34L53.97 395.21V395.22Z" fill="#ECD28B"/>
</g>
<defs>
<clipPath id="clip0_27_188">
<rect width="149.81" height="395.46" fill="white"/>
</clipPath>
</defs>
</svg>
