<svg width="220" height="396" viewBox="0 0 220 396" fill="none" xmlns="http://www.w3.org/2000/svg">
<path d="M94.98 127.77C103.91 135.16 96.92 148.5 98.28 158.51C100.35 173.73 99.63 182.81 98.41 197.9C98.28 199.51 99.66 201.16 99.04 203.44C96.7 212.05 63.03 212.19 61.24 214.65C59.03 229.83 54.01 244.36 51.32 259.42C49.22 271.2 47.6 284.48 46.39 295.82C46.25 297.12 47.04 298 47.37 299.12L27.22 284.74C22.48 317.5 12.98 349.23 5.38 381.4C4.13 384.12 1.42 382.77 1.51 379.54C1.95 363.49 5.96 346.08 8 330.22C9.83 315.98 12.56 271.34 21.62 262.35C22.28 261.69 22.34 260.46 23.79 260.79C24.69 260.99 34.28 272.69 35.87 274.56C36.74 275.59 36.42 275.06 37.28 274.17L54.02 196.16C55.37 194.31 73.22 191.29 76.8 191.04C77.92 190.96 78.9 191.64 80 191.67L81.94 141.5C70.86 130.69 56.31 125.07 44.19 115.7C40.28 112.67 33.43 108.3 34.13 103.17C34.72 98.86 37.78 88.76 39.25 84.25C43.37 71.66 50.1 58.72 54.81 46.07C59.9 32.37 63.66 18.19 68.97 4.56996C70.29 2.86996 74.1 4.56996 76.59 4.61996C81.84 4.73996 88.66 3.42996 92.9 3.64996C100.31 4.03996 96.33 11.7 94.56 15.76C90.01 26.19 82.77 36.41 77.91 47.09C69.68 65.21 64.03 84.98 55.19 102.93C63.86 107.38 72.28 116.32 80.43 120.7C85.14 123.24 90.27 123.87 94.98 127.76V127.77Z" fill="#ECD189"/>
</svg>
