<svg width="221" height="396" viewBox="0 0 221 396" fill="none" xmlns="http://www.w3.org/2000/svg">
<g clip-path="url(#clip0_27_87)">
<path d="M73.6127 95.9797C77.7265 98.2446 77.5395 120.382 78.1684 125.837C78.9852 133.022 83.668 156.877 82.6366 161.918C81.7369 166.285 65.6415 191.166 62.0056 197.328C59.1545 202.155 55.9294 206.846 52.7283 211.44C59.8507 227.355 66.9337 243.457 73.5297 259.641C77.1514 268.524 80.5107 277.437 83.7364 286.535C84.0456 287.399 85.5913 288.419 85.5504 288.817C84.8902 295.349 48.4351 302.399 41.7198 303.435L23.1489 393.579C21.9013 392.066 21.6552 390.452 21.3815 388.598C18.5879 369.675 21.0568 339.879 23.1077 320.495C23.6964 314.95 24.1203 299.694 28.0528 296.55C32.9572 292.635 58.0013 280.203 59.296 276.708C50.0706 266.361 45.1052 252.638 38.5936 240.44C35.4503 234.547 30.4632 228.362 27.74 222.334C25.137 216.583 28.0443 217.461 29.9631 213.801C39.7388 195.177 51.1426 177.711 61.5924 159.453L49.2755 102.539C46.2216 84.4835 64.088 96.4753 73.6076 95.9711L73.6127 95.9797Z" fill="#ECD189"/>
<path d="M87.91 356.26C92.7 355.07 99.72 366.86 96.79 370.03L39.44 394.31C38.37 394.89 36.51 393.88 36.33 393.03C35.14 387.5 81.31 360.69 87.91 356.26Z" fill="#ECD189"/>
</g>
<defs>
<clipPath id="clip0_27_87">
<rect width="219.52" height="395.46" fill="white" transform="translate(0.52002)"/>
</clipPath>
</defs>
</svg>
