<svg width="220" height="396" viewBox="0 0 220 396" fill="none" xmlns="http://www.w3.org/2000/svg">
<g clip-path="url(#clip0_27_75)">
<path d="M60.84 103.72C75.59 109.67 89.91 118.96 102.38 128.94C103.27 138.78 103.36 149.1 103.06 158.98C102.99 161.25 102.13 163.35 102.02 165.62C101.61 174.15 102.41 188.22 99.94 196.16C97.47 204.1 71.28 211.65 64.12 215.03C62.86 230.11 57.11 244.18 54.39 259.03C51.97 272.21 51.62 285.76 48.34 298.79C42.84 305.18 33.98 287.82 31.07 289.91L2.74003 383.93C0.620031 382.02 1.15003 378.35 1.26003 375.74C2.81003 340.31 14.44 301.55 18.05 265.88C23.88 253.71 31.33 271.57 36.8 275.52C39.02 249.71 45.12 224.57 49.05 199.01C51.23 193.61 73.97 185.33 80.06 182.83L81.47 141.14C76.66 138.32 71.8 135.58 67.22 132.38C58.85 126.52 41.51 115.42 34.97 108.98C33.53 107.56 32.23 106.57 32.15 104.3C32.03 100.81 35.27 90.61 36.34 86.5C40.99 68.65 47.42 50.73 54.6 33.76C57.63 26.6 63.65 10.82 69.11 6.04996C73.53 2.19997 92.97 -3.51003 94.94 3.93997C96.57 10.09 83.33 36.61 80.5 44.31C73.64 62.95 68.62 82.27 61.02 100.65L60.85 103.72H60.84Z" fill="#ECD189"/>
<path d="M217.88 158.73C221.95 164.72 215.04 168.55 212.22 173.14C204.86 185.09 200.31 198.39 193.74 210.32C188.55 219.75 177.6 225.55 168.16 230.8C157.48 236.74 145.78 241.44 134.83 246.89C134.06 253.76 132.69 260.57 131.92 267.42C129.93 284.89 129.73 304.82 126.89 321.95C126.38 325 125.69 330.61 121.8 330.23L80.15 318.87C67.44 333.83 55.99 350.02 43.04 364.77C38.19 370.3 27.77 382.48 22.44 386.39C21.13 387.35 20.5 388.2 18.56 387.78C15.49 384.7 39.21 354.47 41.98 350.28C49.95 338.25 57.87 322.64 66.7 311.67C69.86 307.75 72.1 305.46 77.58 305.28L110.6 309.04C113.27 303.62 110.73 297.46 110.68 292.33C110.54 278.8 111.29 260.9 112.54 247.26C112.7 245.55 114.46 238.7 115.45 237.61C118.31 234.49 133.77 226.59 138.47 224.16C150.07 218.18 162.27 213.53 174.02 207.89L197.67 145.93C204.1 141.17 212.44 156.55 217.88 158.76V158.73Z" fill="#ECD189"/>
</g>
<defs>
<clipPath id="clip0_27_75">
<rect width="219.52" height="395.46" fill="white" transform="translate(0.0400391)"/>
</clipPath>
</defs>
</svg>
