<svg width="221" height="396" viewBox="0 0 221 396" fill="none" xmlns="http://www.w3.org/2000/svg">
<g clip-path="url(#clip0_27_63)">
<path d="M217.52 158.65C219.88 162.71 208.32 181.59 206.05 186.59C203.05 193.17 194.78 216.03 191.3 219.82C188.28 223.1 161.67 236.14 155.38 239.55C150.45 242.22 145.27 244.58 140.16 246.87C138.07 264.18 135.85 281.63 133.17 298.9C131.7 308.38 129.99 317.75 128.07 327.21C127.89 328.11 128.69 329.78 128.45 330.1C124.52 335.36 89.64 322.63 83.35 320.06L21.01 387.77C20.72 385.83 21.34 384.32 22.06 382.59C29.41 364.93 46.87 340.66 58.61 325.1C61.97 320.65 70.19 307.79 75.18 307.12C81.4 306.29 109.27 308.53 112.18 306.2C109.6 292.58 112.41 278.26 113.11 264.45C113.45 257.78 112.36 249.91 113.13 243.34C113.9 236.77 115.9 239.32 119.43 237.17C137.4 226.24 156.17 217.14 174.53 206.87L193.28 151.74C199.96 134.69 209.1 154.17 217.52 158.64V158.65Z" fill="#ECD189"/>
<path d="M2.49234 296.5C2.94285 291.585 16.3852 288.83 18.416 292.639L22.4969 354.784C22.693 355.985 21.1277 357.409 20.2658 357.3C14.6519 356.606 4.50688 304.189 2.49234 296.5Z" fill="#ECD189"/>
</g>
<defs>
<clipPath id="clip0_27_63">
<rect width="219.52" height="395.46" fill="white" transform="translate(0.559998)"/>
</clipPath>
</defs>
</svg>
