<svg width="60" height="60" fill="none" xmlns="http://www.w3.org/2000/svg"><path d="m47.4 42.3-.2 2c0 .5 0 1.2-.3 1.7-.2.4-1 .6-1.4.8a9.6 9.6 0 0 1-6-.1 14 14 0 0 1-3.4-2.1 28.3 28.3 0 0 1-4-4c-.1-.2-.4-.4-.6-.4-1-.4-1.6.7-2 1.5a7.7 7.7 0 0 1-7.6 4.2c-1-.2-2-.5-3-1-2.2-1-4.2-2.8-5.3-5-1-2.3-1-5.2.4-7.1 1-1.4 2.6-2.3 4.3-2.7 1.6-.4 3.3-.5 5-.4l6.3.3c.7.1 1.6.1 2-.6.4-.5.3-1.2-.1-1.7-.7-.8-1.8-1-2.8-1-3.9-.4-7.8-1-11.6-1.7-1-.2-1.6-1.3-1.1-2.2 1-2.3 2.4-4.7 4.2-6.3 2.2-2.1 5-3.5 8.1-3.9a19 19 0 0 1 4.7.2 18 18 0 0 1 7.7 2.8c3.1 2.3 5.1 5.9 6 9.6 1 3.8 1 7.7 1 11.6l-.3 5.5Z" fill="#fff"/></svg>
