<svg width="136" height="60" fill="none" xmlns="http://www.w3.org/2000/svg"><g clip-path="url(#a)"><path d="M11.7 56.5C10 45.4 15 34.3 22 25A64.8 64.8 0 0 1 48 4a59.5 59.5 0 0 1 54.7 5.8 49.2 49.2 0 0 1 21.2 45.4" fill="#DE8A2D"/><path d="M.2 50.4c-.7 2-.2 4.6 1.3 6.3 1 .8 1.7 1.5 3.5 2 2.2.5 5.2.8 8 .8 30.8 1 61.7-.5 92.6-.5 8 0 17 0 23.2-1.5 7.4-2 8.4-5.6 5.7-8.6-.2-.2-.7-.7-1.5-1-1-.3-2.5-.5-3.7-.5-8-.5-16-.5-24-.5-32.3.2-64.7.7-97 1.8-1.8 0-3.8.2-5.3.5-1.5.2-2.3.7-2.8 1.2Z" fill="#fff"/></g><defs><clipPath id="a"><path fill="#fff" d="M0 0h136v60H0z"/></clipPath></defs></svg>
