<svg width="61" height="60" fill="none" xmlns="http://www.w3.org/2000/svg"><path d="M16.8 16.1a43.4 43.4 0 0 1 9.5-.5c.4.2.5.6.7 1a30 30 0 0 1 1.5 5.7c0 .5.2 1.1.6 1.4.5.2 1 0 1.4-.5.3-.5.3-1 .4-1.5l.6-4.7c0-.5.1-1 .5-1.2l.8-.1h7.8l1 .1c.5.2.8.8 1 1.3.8 2.1.7 4.5 0 6.7-.9 2.1-2.3 4-4 5.4-.2.2-.5.5-.4.8 0 .2.3.3.5.5 2 1.2 3.1 3.5 3.5 5.8.5 2.3.2 4.7 0 7-3 .4-6 .4-9 .4-.3 0-.7 0-1-.3l-.4-.7c-.4-1-.5-2.1-.7-3.2-.3-1-.8-2.2-1.7-2.7-1.1 2.4-1.8 5-2 7.7-4 .3-5.2 0-9.2-.3-.2 0-.5-.1-.7-.3-.4-.2-.5-.6-.6-1-.4-2.4.2-4.7 1.2-6.9 1-2 2.5-3.9 4-5.6.2-.1.4-.3.4-.5s-.1-.4-.3-.5c-1-1-2.3-1.8-3.3-2.8a10 10 0 0 1-2.1-10.5Z" fill="#fff"/></svg>