<svg width="133" height="104" fill="none" xmlns="http://www.w3.org/2000/svg"><path d="M25.7 28.7a45.9 45.9 0 0 0-14.7 4c-1 .4-1.9 1-2.8 1.6a13.9 13.9 0 0 0-4 4l-.8 2c-.4 1.2-.6 2.5-.9 3.7l-1.4 7.6c-.5 2.6-1 5.4-1 8.1a12.7 12.7 0 0 0 4 10 10.6 10.6 0 0 0 3.6 2.2l3.3 1a76.5 76.5 0 0 0 13.6 1.8 2.4 2.4 0 0 0 2.5-2.4c0-.6-.3-1.3-.8-1.7-.4-.5-1-.7-1.7-.7l-6.2-.6h.7a66.7 66.7 0 0 1-10.4-2.2l.6.2c-.7-.2-1.4-.6-2-1l.5.3-1.4-1.4.4.5c-.5-.7-1-1.4-1.3-2.2l.3.6c-.5-1-.7-2.1-.9-3.2l.1.7a20 20 0 0 1 .1-5.3v.7c.2-2.2.7-4.3 1-6.4A4778.7 4778.7 0 0 0 8.4 41l-.3.6a8 8 0 0 1 1-1.7l-.3.5c.5-.7 1.2-1.4 1.9-1.9l-.5.4a23 23 0 0 1 5-2.9l-.5.3a36.2 36.2 0 0 1 9.7-2.6l-.7.1a45.9 45.9 0 0 1 3-.4l.8-.5c.4-.4.7-1.1.7-1.7 0-.6-.2-1.3-.7-1.8-.5-.4-1-.7-1.7-.7ZM102.5 32.1c2.5 1.7 5.5 2.1 8.5 2.5l2.3.2h-.6a28.5 28.5 0 0 1 5.5 1.4l-.5-.3a52.5 52.5 0 0 1 7 4l-.4-.4c.6.5 1.2 1 1.7 1.7l-.4-.5c.4.5.8 1 1 1.7l-.2-.6c.3.9.6 1.8.7 2.8l-.1-.7c.2 1.9.2 3.8.2 5.6.1 2.2.3 4.3.3 6.5 0 1.1 0 2.3-.2 3.4l.1-.6c-.2 1.3-.5 2.7-1 4l.2-.6c-.4.9-.9 1.7-1.5 2.5l.4-.5c-.5.7-1.1 1.3-1.8 1.8l.5-.3c-1.4 1-3 1.8-4.6 2.4l.6-.2a44 44 0 0 1-11.1 3h.6a68.2 68.2 0 0 1-2.4.3l-.7.5c-.4.4-.7 1.1-.7 1.7 0 .6.2 1.2.7 1.7.4.3 1 .7 1.7.6a48.2 48.2 0 0 0 14.7-4c2.1-.9 4.3-2.1 5.7-4 .8-1 1.5-2 2-3 .4-1.2.8-2.3 1-3.5.6-2.5.6-5 .5-7.5l-.2-3.8-.1-3.4c0-2.5-.3-5-1.6-7.2a13.3 13.3 0 0 0-5.2-4.9l-2.9-1.5-3.7-1.7c-2.2-.8-4.5-1-6.8-1.3l-1.6-.2h.6c-1.6-.1-3.3-.4-4.9-1l.6.2-1.6-.9c-.5-.3-1.2-.4-1.8-.2a2.4 2.4 0 0 0-1.6 2.9c.2.6.5 1 1 1.4Z" fill="#4298D4"/><path d="M64 .2c3 0 6 .3 9 .7 5.7.7 10.4 1 16 3.3a30.9 30.9 0 0 1 16 12.7c1.7 3.1 2.7 6.5 4.2 9.8 2 4.2 4.6 8 6.4 12.3 3.1 7.9 2.5 16.8.8 25.2-1 4.8-2.3 9.6-5 13.8-3.1 4.7-7.7 8.2-12 11.9-6.4 5.4-12.9 11.7-21.1 13-4.2.8-8.5.2-12.6-.6C58 100.9 50.5 99 43 96.8a42.2 42.2 0 0 1-15.7-7.3 30.4 30.4 0 0 1-9.1-15.3 84 84 0 0 1-2.3-17.9c-.5-9-.8-18.4 3-26.5 2.8-6 7.5-10.7 12.2-15.3 3.2-3.1 6.5-6.3 10.3-8.6C48 1.9 53.1-.1 64 .2Z" fill="#2F587E"/><path d="M30.6 28.3c4.4-4.8 7.7-7.9 13.2-11.4A36 36 0 0 1 62 10.7c4.4-.1 8.7.8 12.9 2 3.7 1 7.4 2.3 10.8 4.3A38.7 38.7 0 0 1 103 41.2a67.7 67.7 0 0 1-.3 30.3c-.4 1.8-.8 3.8-1.9 5.3-.8 1.3-2 2.3-3.2 3.2-4.2 3.4-8.7 6.4-13.4 9-2.6 1.6-5.4 3-8.5 3.5-3.9.7-7.9-.2-11.8-.7-6-.8-12.3-.7-17.8-3.2-4.5-2.1-8-5.8-11.4-9.3-2-2.1-4-4.2-5.4-6.7a33.8 33.8 0 0 1-3.1-14c-.4-4.5-.7-9.1-.4-13.7.3-5-.1-9.7 4.8-16.6Z" fill="#1B3952"/><path d="M64 16c7 0 15.1.6 21 4.5 3.5 2.4 5.8 6 8 9.4l4.5 6.8c1.3 2 2.6 4.1 3.4 6.4 1 2.8 1 5.8 1 8.7 0 3.3-.3 6.6-1.3 9.7-1.1 3.4-3.1 6.4-5.1 9.3a33 33 0 0 1-30 16.6A37 37 0 0 1 30 58.3a37 37 0 0 1-1.6-7.7c-.3-3.4.3-6.8 1.6-10 3.1-7.4 10.1-12.4 16.7-17 5.3-3.7 11-7.5 17.4-7.5Z" fill="#09151F"/></svg>
