<svg width="1218" height="140" fill="none" xmlns="http://www.w3.org/2000/svg"><path d="M559 42a42.7 42.7 0 0 0-5.6 8.8l-.8.2c-2.2.6-4.4 1.3-6.4 2.3l-2 1a21.4 21.4 0 0 0-6.6 4.8l-1.1 1.5c.6-8.8 3.5-17.5 8-25.3l14.5 6.6Z" fill="#D42331"/><path d="M682.5 58.9c-1.1-1-2.3-1.9-3.6-2.6l-3.4-1.9a38.3 38.3 0 0 0-4.4-2c-2.6-1-5.4-1.2-8.1-1.6l-1-.1-2-3.8c-1.7-3.8-3-8-5-11.6A36.4 36.4 0 0 0 636.3 20c-6.7-2.7-12.2-3.1-19-4-3.5-.4-7-.8-10.6-.8-12.9-.3-18.9 2-26.7 6.8-4.6 2.8-8.4 6.6-12.2 10.4-3 3-6.2 6-8.8 9.5L544.5 35a67.4 67.4 0 0 1 31.7-28 96.7 96.7 0 0 1 55-5.2 139 139 0 0 1 19.5 9.3c3.4 2.1 6.5 5.4 9.4 8.4a90.4 90.4 0 0 1 22.4 39.3Z" fill="#0E2130"/></svg>
