<svg width="1218" height="124" fill="none" xmlns="http://www.w3.org/2000/svg"><path opacity="1" d="M1210.8 53.8h-.8c-12.3-1.3-25.3-2-37.6-2.7-25-1.3-50-1.8-75-1.8-37.7 0-75.2 9-112.7.6-18.7-3.2-37.5-2-56.3-1.4-31.3 1.4-62.6 4.2-93.9 3.5-12.5-.3-25-.3-37.5-.4l-110.5-.5c-.2-1.5-.7-2.9-1.4-4.2A15.7 15.7 0 0 0 679 41a69 69 0 0 0-7.9-3.8c-2.6-1-5.3-1.2-8-1.6l-1.1-.1-2-3.8c-1.7-3.8-2.9-8-5-11.6a36.6 36.6 0 0 0-18.7-15.3c-6.6-2.6-12.2-3-18.9-4-3.5-.4-7-.7-10.7-.8C594-.3 587.8 2 580 6.8a70 70 0 0 0-12.2 10.4 65.8 65.8 0 0 0-14.4 18.3l-.9.2a43.5 43.5 0 0 0-11.7 5.1 16.6 16.6 0 0 0-4.7 5 14.2 14.2 0 0 0-1.6 4.7c-19 0-38 .3-56.7 1-12.5.9-25 2.4-37.5 2.8-24.3.7-50.7 0-75.1 0-42.4.1-89.1 0-131.4-1.1-7.1-.3-16.5-.5-23.5-1-10.7-.6-22.2-1.8-32.8-2.5-12.5-.7-25.1-1-37.6.1-5.8.5-12.8 1.6-18.8 2.3-12.4 1.9-25 2.2-37.5 2.4-25 .5-50 .6-75.1-.7a8 8 0 1 0-.3 16c24.6-.6 50.8-.8 75.4-.8h18.8c14.5 0 32.4 1 46.9 1 21.9.2 43.8-2 65.7-1.6 20.4-.1 40.6 4.2 61 4.6H280.7c6.3 0 12.6-1.5 18.8-2.5 6.2-.9 12.5-.8 18.8-1l9.3-.1c42.5.5 88.9.4 131.4.3 24-.2 48.1.3 72.1 1v.6c0 3 .7 6 2.1 8.6a14.8 14.8 0 0 0 2.6 3.4 12.9 12.9 0 0 0 4.4 2.6c1.2.5 2.6.8 3.9 1.1a84.1 84.1 0 0 0 8.5 1.6c1.9 7 5.3 13.7 10.8 18.4 5.2 4.5 12 6.8 18.5 8.8 8.8 2.6 17.8 4.9 26.8 6.6 5 .9 10 1.6 14.9.8 9.7-1.7 17.3-9.2 24.9-15.7 5-4.4 10.6-8.6 14.2-14.3l2-3.5a48 48 0 0 0 11.7-3.9 18 18 0 0 0 6.8-4.9 20.4 20.4 0 0 0 3.5-7.7c5.5-.2 11-.5 16.4-1 12.2-1 25.3-2.4 37.5-3.2 6.3-.4 12.6-.6 18.8-.7 6.3 0 12.5 0 18.8.9 3.1.3 6.2 1 9.4 1.5 15.5 3.2 31.2 3.9 46.9 1.4 9.3-1.4 18.7-2.5 28.2-2.6 105.7-2.2 240.3.1 347.3.3a8 8 0 0 0 .9-16Z" fill="#606060"/></svg>
