<svg width="225" height="396" viewBox="0 0 225 396" fill="none" xmlns="http://www.w3.org/2000/svg">
<path d="M76.1 7.9901C77.03 8.0101 78.05 7.8701 78.94 7.9901L82.65 9.27011C86.68 14.0001 81.24 26.8201 78.94 32.1401C78.83 32.5901 79.05 33.1101 78.94 33.5601L74.68 46.3501C74.59 46.8001 74.76 47.3101 74.68 47.7701L71.84 57.7101C71.76 58.1701 71.91 58.6701 71.84 59.1301L69 66.2301C68.88 67.1401 69.14 68.1701 69 69.0701L66.16 77.5901C66.06 78.0401 66.25 78.5601 66.16 79.0101L63.32 86.1101C63.25 86.5701 63.39 87.0701 63.32 87.5301C57.51 99.6301 58.93 107.2 67.58 110.26C67.96 110.45 68.62 110.07 69 110.26L73.26 113.1C73.64 113.29 74.33 112.9 74.68 113.1L81.79 118.78C82.14 118.99 82.86 118.57 83.21 118.78C87.01 122.26 91.27 125.1 96 127.3C96.39 127.48 97.03 127.12 97.42 127.3C100.83 129.8 102.75 133 103.11 137.24C103.04 137.73 103.23 138.27 103.11 138.66L98.85 141.5C98.49 141.65 97.92 141.4 97.43 141.5C94.64 142.52 92.31 142.47 90.32 140.08C89.85 139.99 89.32 140.2 88.9 140.08L83.21 137.24C82.79 137.09 82.2 137.4 81.79 137.24L77.53 134.4C77.12 134.24 76.51 134.57 76.11 134.4L70.42 131.56C70.02 131.39 69.4 131.73 69 131.56C67.57 129.84 65.49 129.06 63.31 128.72C62.91 128.54 62.28 128.9 61.89 128.72L57.63 125.88C57.24 125.7 56.59 126.07 56.21 125.88L46.26 120.2C45.9 120 45.18 120.41 44.84 120.2C41.33 112.06 40.86 103.07 43.42 93.2101C43.42 92.7401 43.42 92.2601 43.42 91.7901L44.84 81.8501C44.84 80.9001 44.81 79.9501 44.84 79.0101C45.51 72.7901 46.46 66.6301 47.68 60.5401C47.75 59.6001 47.59 58.6301 47.68 57.7001L53.37 26.4501C53.46 25.5201 53.33 24.5501 53.37 23.6101V16.5101C53.52 16.0401 53.18 15.4001 53.37 15.0901C57.08 9.86011 62.77 7.4901 70.43 7.9901C70.89 7.9301 71.38 8.0301 71.85 7.9901C73.07 6.7701 74.82 6.9701 76.11 7.9901H76.1Z" fill="#EBD189"/>
</svg>
