<svg width="225" height="396" viewBox="0 0 225 396" fill="none" xmlns="http://www.w3.org/2000/svg">
<path d="M63.31 7.99011C64.73 8.02011 66.16 7.93011 67.57 7.99011C69.4 7.08011 71.45 6.96011 73.26 7.99011C73.73 8.01011 74.22 7.94011 74.68 7.99011L77.52 9.41011C78.82 9.53011 80.88 9.10011 81.78 9.41011L83.2 13.6701C83.27 14.5801 83.25 15.5901 83.2 16.5101L81.78 20.7701C81.71 21.2301 81.86 21.7301 81.78 22.1901L80.36 25.0301C80.27 25.4801 80.46 26.0001 80.36 26.4501L74.67 46.3401C74.58 46.7901 74.76 47.3101 74.67 47.7601C73.1 54.5001 71.2 61.1301 68.98 67.6501C68.89 68.1101 69.06 68.6101 68.98 69.0701L66.14 79.0101C66.05 79.4701 66.22 79.9701 66.14 80.4301L64.72 83.2701C64.63 83.7301 64.8 84.2301 64.72 84.6901L63.3 90.3701C63.23 90.8301 63.37 91.3301 63.3 91.7901C58.87 104.5 60.57 106.98 72.33 112.32L80.36 118.78C80.7 118.99 81.44 118.57 81.78 118.78L88.89 124.46C89.27 124.65 89.94 124.27 90.31 124.46C102.79 130.15 108.47 140.57 107.37 155.71C107.43 156.65 107.31 157.61 107.37 158.55L110.21 168.49C110.34 169.39 110.05 170.45 110.21 171.33C112.51 175.76 113.6 180.66 114.47 185.54C114.89 187.06 115.55 188.5 115.89 189.8L117.31 195.48C117.4 196.39 117.33 197.4 117.31 198.32C119.24 202.31 119.07 205.29 114.47 206.84C114.04 206.98 113.48 206.7 113.05 206.84L105.94 209.68C105.48 209.75 104.98 209.6 104.52 209.68C101.52 210.28 98.68 211.23 95.99 212.52C95.54 212.63 95.02 212.42 94.57 212.52C92.05 212.47 89.69 212.95 87.46 213.94C87 214.02 86.5 213.87 86.04 213.94L83.2 215.36C82.73 215.41 82.25 215.32 81.78 215.36C79.69 216.48 76.56 216.56 74.67 215.36C74.71 214.7 76.67 213.04 76.09 212.53C75.22 212.3 73.85 212.77 73.24 212.52C72.69 210.7 73.63 208.81 76.08 206.84C76.82 206.26 78.08 205.99 78.92 205.42C82.02 203.26 84.87 200.89 87.45 198.32C87.8 198.11 88.5 198.52 88.87 198.32L93.13 195.48C93.5 195.28 94.18 195.67 94.55 195.48L101.66 191.22C103.52 190.4 101.89 188.33 101.66 186.96L100.24 182.7C100.16 182.24 100.33 181.74 100.24 181.28C95.64 167.86 92.84 153.78 90.29 140.08C89.94 139.89 89.28 140.26 88.87 140.08L86.03 138.66C85.6 138.5 84.99 138.83 84.61 138.66L70.4 131.56C69.64 131.31 68.34 131.8 67.56 131.56L61.87 128.72C61.45 128.55 60.83 128.89 60.45 128.72L56.19 125.88C55.81 125.69 55.14 126.07 54.77 125.88L51.93 123.04C51.58 122.83 50.86 123.25 50.51 123.04C49.45 121.6 47.95 120.69 46.25 120.2C45.91 119.99 45.15 120.42 44.83 120.2C38.82 117.13 38.71 113.27 39.3 107.01L40.57 96.0501C40.59 95.5801 40.55 95.1001 40.57 94.6301L44.83 69.0601C44.87 68.5901 44.79 68.1101 44.83 67.6401L47.67 52.0101C47.72 51.5401 47.62 51.0601 47.67 50.5901C49.41 43.6501 50.35 36.5401 50.51 29.2801C50.64 27.3801 50.45 25.9801 50.51 25.0201L51.93 17.9201C52.03 17.5701 53.14 17.1001 53.08 16.0301C53.02 15.0301 52.16 14.3601 51.93 13.6601C51.03 12.8001 51.07 11.7501 51.93 10.8201C52.13 10.3601 53.24 8.09011 53.35 7.98011C56.63 5.50011 59.89 5.95011 63.3 7.98011L63.31 7.99011Z" fill="#EBD189"/>
<path d="M208.3 127.31C209.67 127.34 211.34 127.1 212.56 127.31C215.86 128.22 216.81 129.78 215.4 132.99C215.33 134.88 215.53 136.79 215.4 138.67L212.56 154.3C212.5 154.77 212.61 155.25 212.56 155.72L209.72 167.08C209.65 167.54 209.78 168.04 209.72 168.5L208.3 171.34C208.2 172.27 208.41 173.26 208.3 174.18L206.88 182.7C206.84 183.17 206.94 183.66 206.88 184.12L205.46 188.38C205.29 188.82 205.65 189.46 205.46 189.8L196.93 198.32C196.62 198.54 195.84 198.1 195.51 198.32C193.3 199.99 191.4 201.88 189.82 204C187.84 205.35 185.25 206.27 182.71 208.26L181.29 211.1C181.03 211.34 180.13 210.86 179.87 211.1L175.61 216.78C175.31 217.01 174.5 216.55 174.19 216.78L164.24 225.3C163.9 225.51 163.17 225.09 162.82 225.3C161.72 227.76 159.51 228.71 157.13 229.56C156.18 230.04 155.23 230.5 154.29 230.98C151.2 234.77 138.41 242.16 140.08 233.82C140.2 233.35 139.93 232.77 140.08 232.4C146.97 223.74 154.55 215.69 162.82 208.25C163.09 208.02 163.97 208.48 164.24 208.25L184.14 189.78C184.4 189.54 185.3 190.01 185.56 189.78L188.4 186.94C189.13 185.83 189.35 185.28 189.82 184.1L191.24 179.84C191.33 179.39 191.17 178.88 191.24 178.42L192.66 169.9C192.68 169.43 192.62 168.95 192.66 168.48L194.08 161.38C194.17 160.45 193.98 159.47 194.08 158.54L196.92 141.49C197.06 140.6 196.75 139.52 196.92 138.65C196.85 130.59 198.97 124.02 208.29 127.29L208.3 127.31Z" fill="#EBD189"/>
</svg>
