<svg width="225" height="396" viewBox="0 0 225 396" fill="none" xmlns="http://www.w3.org/2000/svg">
<path d="M74.98 9.40992C77.12 9.30992 80.06 9.14992 82.09 9.40992L84.93 10.8299C85.06 11.1799 84.88 11.7499 84.93 12.2499C86.24 14.8699 86.21 18.1299 84.93 20.7699C84.89 21.7099 85.01 22.6799 84.93 23.6099L83.51 26.4499C83.45 26.9199 83.59 27.4099 83.51 27.8699C82.91 31.3399 81.96 34.6599 80.67 37.8099C80.59 38.2699 80.74 38.7699 80.67 39.2299C79.98 41.7799 79.03 44.1399 77.83 46.3299C77.69 47.2299 77.98 48.2799 77.83 49.1699L74.99 57.6899C74.9 58.6199 75.09 59.5999 74.99 60.5299C74.27 63.5499 73.33 66.3899 72.15 69.0499C71.99 69.9299 72.29 70.9999 72.15 71.8899C70.68 73.9599 69.73 76.3199 69.31 78.9899C69.22 79.4399 69.39 79.9499 69.31 80.4099L67.89 83.2499C67.79 83.6999 68 84.2299 67.89 84.6699L63.63 98.8799C63.16 100.3 62.27 101.56 62.21 103.14V105.98C63.38 106.92 65.43 106.83 66.47 107.4L79.26 115.92C79.62 116.12 80.33 115.71 80.68 115.92L83.52 118.76C83.86 118.97 84.61 118.54 84.94 118.76L103.42 132.97C103.89 133.44 104.41 133.89 104.84 134.39L109.1 141.49C109.2 141.94 109 142.46 109.1 142.91L113.36 162.8C113.48 163.72 113.26 164.71 113.36 165.64C114.46 170.3 115.41 175.04 116.2 179.85C116.24 180.79 116.16 181.75 116.2 182.69L117.62 191.21C117.65 193.1 117.62 195 117.62 196.89C119.11 200.31 119.69 203.67 117.62 206.83C117.31 207.05 116.54 206.61 116.2 206.83L111.94 209.67C111.52 209.82 110.95 209.53 110.52 209.67L103.41 212.51C102.6 212.7 101.47 212.37 100.57 212.51L96.31 213.93C94.25 214.17 89.04 213.04 86.36 213.93C85.15 221.31 84.94 229.43 86.36 236.66C86.36 240.44 86.36 244.24 86.36 248.02C87.88 262.65 87.73 277.85 85.91 292.59C85.15 297.49 79.35 296.19 76.41 293.48C75.54 293.29 74.26 293.73 73.57 293.48L69.31 290.64C69.08 290.37 69.55 289.47 69.31 289.22C67.15 288.26 65.73 286.84 65.05 284.96C64.76 284.73 63.91 285.19 63.63 284.96L56.52 277.86C56.02 277.41 55.58 276.91 55.1 276.44C54.12 274.36 52.7 272.94 50.84 272.18C50.19 271.33 48.21 270.36 48 269.34L49.42 266.5C49.67 266.28 50.42 266.69 50.84 266.5L55.1 265.08C55.64 265.11 58.15 266.17 59.36 266.5L65.05 269.34C65.46 269.5 66.07 269.17 66.47 269.34C71.55 273.03 72.97 270.19 70.73 260.82C70.76 259.4 70.73 257.98 70.73 256.56C68.92 247.07 68.44 237.6 69.31 228.15C69.29 227.2 69.33 226.25 69.31 225.31C68.05 221.6 68.04 217.65 69.31 213.95C69.34 213 69.27 212.05 69.31 211.11L70.73 201.17C71.05 200.97 71.72 201.35 72.15 201.17L86.36 195.49C86.82 195.42 87.32 195.56 87.78 195.49C92.16 194.27 96.08 193.66 99.51 193.66L92.04 167.08C91.96 166.62 92.11 166.12 92.04 165.66C90.51 161.2 89.57 156.46 89.2 151.45C89.14 150.51 89.28 149.54 89.2 148.61C89.06 143.43 86.45 141.93 82.09 140.09C81.26 139.87 79.98 140.33 79.25 140.09L69.3 134.41C68.89 134.24 68.28 134.58 67.88 134.41C59.26 130.57 51.21 125.83 43.72 120.2C43.38 119.99 42.63 120.42 42.3 120.2C39.41 117.03 39.4 112.66 40.88 108.84C40.9 107.9 40.83 106.94 40.88 106L42.3 101.74C42.34 101.27 42.25 100.79 42.3 100.32L43.72 88.9599C43.76 88.4899 43.68 88.0099 43.72 87.5399L45.14 83.2799C45.22 82.3499 45.06 81.3699 45.14 80.4399C47.02 71.5999 47.66 62.4399 47.98 53.4499C48.03 52.9799 47.92 52.4999 47.98 52.0299C48.86 37.3899 51.86 23.3299 56.96 9.85992C62.88 9.74992 68.89 9.59992 74.99 9.41992L74.98 9.40992Z" fill="#EBD189"/>
<path d="M214.28 127.31C214.74 127.47 215.37 127.13 215.7 127.31C216.91 130.1 216.85 132.99 215.7 135.83C215.7 136.3 215.7 136.78 215.7 137.25L212.86 157.14C212.78 158.07 212.96 159.05 212.86 159.98C211.88 162.2 211.41 164.57 211.44 167.08C211.38 167.55 211.51 168.04 211.44 168.5L210.02 174.18C209.83 175.03 210.24 176.23 210.02 177.02L208.6 179.86C208.46 180.3 208.75 180.87 208.6 181.28L207.18 185.54C205.51 188.75 204.93 188.88 202.92 191.22L175.91 213.95C175.62 214.18 174.78 213.72 174.49 213.95L173.07 216.79C172.79 217.02 171.93 216.56 171.65 216.79L170.23 219.63C169.95 219.86 169.11 219.4 168.81 219.63C167.35 221.72 165.45 223.62 163.12 225.31C162.27 225.88 161.07 226.15 160.28 226.73C158.3 229.42 155.93 231.78 153.17 233.83C152.99 234.02 151.29 233.43 150.58 234.07C149.98 234.73 150.15 237.09 150.33 238.09L151.75 243.77C151.85 244.22 151.66 244.73 151.75 245.19L153.17 248.03C153.25 248.49 153.1 248.99 153.17 249.45C153.12 251.96 153.59 254.33 154.59 256.55C154.71 257.46 154.49 258.47 154.59 259.39L157.43 273.6C157.49 274.06 157.37 274.56 157.43 275.02L158.85 280.7C158.97 281.62 158.73 282.62 158.85 283.54C160.24 287.66 161.18 291.93 161.69 296.33C161.71 296.8 161.69 297.28 161.69 297.75C164.29 305.58 163.71 315.46 153.16 311.96C151.76 311.88 150.26 312.14 148.9 311.96L143.21 310.54C142.75 310.47 142.25 310.61 141.79 310.54L137.53 309.12C136.2 308.91 134.6 309.34 133.27 309.12L119.06 306.28C117.67 306.11 116.18 306.45 114.8 306.28C112.66 305.82 110.61 305.15 109.11 303.44C109.07 303.37 107.61 303.58 107.72 302.74C109.29 299.62 112.97 301.24 114.8 300.6C118.64 298.8 122.43 298.32 126.17 299.18C131.82 298.95 137.59 299.53 143.23 299.18C144.86 298.74 145.81 297.79 146.07 296.34C145.93 295.45 146.16 294.42 146.07 293.5L144.65 284.98C144.52 283.58 144.78 282.12 144.65 280.72L143.23 277.88C143.14 276.95 143.32 275.97 143.23 275.04L141.81 266.52C141.78 265.58 141.88 264.61 141.81 263.68L138.97 250.89C138.87 249.49 139 248.04 138.97 246.63L137.55 238.11C137.48 237.18 137.53 236.2 137.55 235.27C138.81 230.73 142.13 226.47 147.5 222.48C148.89 221.05 150.36 219.65 151.76 218.22L181.61 189.81C181.89 189.58 182.75 190.04 183.03 189.81C185.16 187.3 187.53 184.93 190.14 182.71C190.37 181.97 189.95 180.74 190.14 179.87C191.38 175.23 192.33 170.5 192.98 165.66C193.03 165.19 192.93 164.71 192.98 164.24L194.4 158.56C194.46 158.09 194.34 157.6 194.4 157.14L197.24 142.93C197.35 142 197.14 141.02 197.24 140.09C197.82 136.62 198.77 133.3 200.08 130.15C200.17 129.7 199.97 129.18 200.08 128.73C203.35 123.54 209.63 124.01 214.29 127.31H214.28Z" fill="#EBD189"/>
</svg>
