<svg width="225" height="396" viewBox="0 0 225 396" fill="none" xmlns="http://www.w3.org/2000/svg">
<path d="M71.02 5.14007C71.27 4.34007 71.77 4.42007 72.44 5.14007L79.55 6.56007C80.43 6.73007 81.63 6.34007 82.39 6.56007C84.25 7.29007 85.67 8.23007 86.65 9.40007C87.06 8.77007 87.54 8.80007 88.07 9.40007C89.13 10.3401 89.17 11.2901 88.07 12.2401C87.37 12.5301 85.84 11.9401 85.23 12.2401L82.39 25.0301C82.25 25.9301 82.53 26.9701 82.39 27.8701L79.55 34.9701C79.46 35.4301 79.64 35.9301 79.55 36.3901L78.13 40.6501C78.04 41.1101 78.23 41.6201 78.13 42.0701L75.29 50.5901C75.24 51.0601 75.35 51.5501 75.29 52.0101C74.65 56.3701 73.7 60.6301 72.45 64.8001C72.32 65.7101 72.57 66.7301 72.45 67.6401L69.61 76.1601C69.46 77.0501 69.77 78.1301 69.61 79.0001L68.19 81.8401C68.11 82.3001 68.27 82.8001 68.19 83.2601L66.77 87.5201C66.6 88.3901 66.95 89.5101 66.77 90.3601L62.51 104.57C62.57 105.2 63.65 105.59 63.93 105.99L69.62 110.25C69.95 110.46 70.69 110.04 71.04 110.25L73.88 113.09C75.35 113.88 77.19 113.99 78.14 114.51L83.83 118.77C84.23 118.95 84.86 118.59 85.25 118.77L89.51 121.61C89.9 121.8 90.55 121.42 90.93 121.61L99.46 127.29C99.86 127.42 100.41 127.18 100.88 127.29C102.37 127.84 103.17 128.65 103.72 130.13C103.85 130.35 104.73 129.94 105.14 130.13C108.54 131.29 110.18 133.76 110.83 137.23C111.53 138.48 111.53 139.42 110.83 140.07L112.25 142.91C112.3 143.38 112.22 143.86 112.25 144.33L113.67 152.85C113.68 153.32 113.64 153.8 113.67 154.27L116.51 168.48C116.54 168.95 116.48 169.43 116.51 169.9C117.63 174.65 118.11 179.38 117.93 184.11C118.43 185.85 118.9 187.74 119.35 189.79C119.42 191.2 119.32 192.63 119.35 194.05L120.77 208.26C120.71 208.75 120.88 209.28 120.77 209.68C119.47 210.08 118.05 210.08 116.51 209.68C116.17 210.95 115.69 210.92 115.09 209.68L112.25 212.52C111.32 212.6 110.34 212.42 109.41 212.52C105.41 214.26 100.81 214.97 96.62 213.94C96.15 214.86 95.67 214.86 95.2 213.94C90.18 214.21 86.72 214.97 84.83 216.2L85.25 230.98C85.14 232.86 85.29 234.78 85.25 236.66L86.67 263.65C86.69 264.12 86.65 264.6 86.67 265.07L88.09 277.86C88.62 278.92 89.04 279.86 88.09 280.7C89.02 281.01 88.96 281.49 88.09 282.12C88.09 282.59 88.09 283.07 88.09 283.54C91.53 291.49 90.59 296.7 85.25 299.17C84.8 299.21 84.29 299.2 83.83 299.17C72.19 292.19 67.45 293.61 69.62 303.43C69.6 303.9 69.62 304.38 69.62 304.85L68.2 313.37C68.19 314.32 68.24 315.27 68.2 316.21L65.36 336.1C65.28 337.03 65.44 338.01 65.36 338.94L63.94 344.62C63.9 345.09 63.99 345.57 63.94 346.04L62.52 355.98C62.52 356.45 62.52 356.93 62.52 357.4V360.24C62.41 362.12 62.64 364.04 62.52 365.92L61.1 370.18C60.94 372.05 61.28 374 61.1 375.86C61.1 385.33 59.2 389.59 55.41 388.65V387.23C54.86 385 54.39 382.63 53.99 380.13C53.9 378.25 54.03 376.34 53.99 374.45V373.03C51.39 340 51.97 306.63 53.99 273.59C52.8 273.19 52.93 271.43 53.99 270.75C58.14 268.22 64.98 270.55 69.63 272.17C70.1 272.15 70.58 272.18 71.05 272.17C72 270.91 71.9 270.64 71.05 269.33L69.63 263.65V262.23C68.48 257.69 68.01 252.96 68.21 248.02C67.52 246.84 67.52 245.89 68.21 245.18C66.91 242.59 67.11 239.31 68.21 236.66C67.24 236.36 67.3 235.87 68.21 235.24C66.85 226.11 66.22 215.85 68.21 206.83C67.57 206.42 67.6 205.94 68.21 205.41L69.63 202.57C69.81 202.18 69.44 201.53 69.63 201.15C71.48 198.62 74.32 196.73 78.16 195.47C78.6 195.35 79.13 195.58 79.58 195.47L89.53 192.63C90.93 192.5 92.38 192.69 93.79 192.63C95.54 191.99 97.19 190.36 96.63 188.37V186.95C92.64 175.07 90.84 161.5 89.52 148.59C87.73 148.63 88.26 146.75 89.52 145.75C87.79 145.12 86.37 144.17 85.26 142.91C84.85 143.65 84.37 143.62 83.84 142.91L73.89 137.23C73.49 137.06 72.85 137.41 72.47 137.23C70.65 136.59 69.22 135.64 68.21 134.39C67.81 135 67.33 134.96 66.79 134.39C59.55 131.15 52.92 127.36 46.89 123.03C46.5 122.85 45.86 123.21 45.47 123.03C40.64 121.43 38.27 118.59 38.36 114.51C38.32 114.04 38.39 113.56 38.36 113.09C37.21 110.49 37.21 107.65 38.36 104.57C39.13 94.0401 40.55 83.6201 42.62 73.3201C42.71 72.3901 42.55 71.4201 42.62 70.4801C43.26 65.1901 44.21 59.9801 45.46 54.8501C45.59 53.4501 45.34 51.9901 45.46 50.5901C46.66 45.3601 47.61 40.1501 48.3 34.9601C47.05 34.3101 47.35 33.1901 48.3 32.1201C48.44 8.26007 56.02 -0.739926 71.04 5.13007L71.02 5.14007Z" fill="#EBD189"/>
<path d="M214.58 124.47C215.05 124.5 215.54 124.41 216 124.47C216.81 125.6 216.81 127.5 216 130.15C216.05 131.09 215.97 132.05 216 132.99C217.19 135.23 217.19 137.85 216 140.09C215.97 141.5 216.09 142.94 216 144.35L213.16 159.98C212.67 162.71 212.28 166.05 211.74 168.5L210.32 174.18C209.74 176.46 209.49 179.44 208.9 181.28L207.48 185.54C207.01 186.71 206.76 187.29 206.06 188.38L196.11 198.32C195.82 198.55 194.99 198.09 194.69 198.32L187.58 205.42C187.29 205.65 186.45 205.19 186.16 205.42L184.74 208.26C184.45 208.49 183.6 208.03 183.32 208.26L153.47 235.25C153.51 235.72 153.42 236.2 153.47 236.67L154.89 240.93C154.93 241.4 154.84 241.88 154.89 242.35V245.19C154.93 245.66 154.85 246.14 154.89 246.61L156.31 249.45C156.38 250.39 156.26 251.35 156.31 252.29L157.73 262.23C157.75 264.12 157.64 266.03 157.73 267.91C159.24 272.68 159.72 277.41 159.15 282.12C159.18 282.59 159.12 283.07 159.15 283.54C160.93 286.9 161.88 290.68 161.99 294.9C162.02 295.84 161.97 296.8 161.99 297.74C163.56 303.2 163.56 308.41 161.99 313.37C161.69 313.58 160.98 313.18 160.57 313.37L157.73 314.79C157.28 314.9 156.76 314.68 156.31 314.79C152.65 316.07 148.86 317.02 144.94 317.63C144 317.68 143.04 317.57 142.1 317.63C136.43 318.8 130.74 319.28 125.04 319.05C123.67 318.87 122.17 319.17 120.78 319.05C120.77 321.34 119.37 323.08 117.94 324.73C117.73 325.07 118.15 325.81 117.94 326.15C110.77 335.23 104.14 344.7 98.04 354.56C97.84 354.92 98.24 355.62 98.04 355.98L88.09 370.19C87.28 371.64 87.17 373.62 86.67 374.45C83.17 379.93 79.38 385.14 75.3 390.08C74.86 390.84 74.39 390.82 73.88 390.08C72.8 387.6 73.99 385.11 75.3 382.98C75.43 382.08 75.14 381 75.3 380.14L78.14 373.04C78.46 371.81 79.13 370.25 79.56 368.78C85.65 352.71 93.1 337.21 100.88 321.9C101.05 321.5 100.71 320.88 100.88 320.48L107.99 309.12C108.17 308.73 107.81 308.09 107.99 307.7C109.21 304.58 111.1 302.21 113.68 300.6C114.51 300.4 115.71 300.81 116.52 300.6C119.12 299.09 121.96 298.14 125.05 297.76C125.52 297.73 126 297.78 126.47 297.76L132.4 296.96C142.48 298.67 146.66 297.04 144.95 292.08C144.83 291.66 145.05 291.12 144.95 290.66L143.53 287.82C143.45 287.37 143.59 286.87 143.53 286.4L142.11 277.88C142.11 277.41 142.13 276.93 142.11 276.46C140.98 270.37 140.03 264.21 139.27 257.99C138.53 256.24 138.53 254.81 139.27 253.73C137.87 247.28 136.21 237.12 139.27 231C139.4 230.52 139.1 229.92 139.27 229.58C151.77 215.58 164.88 201.63 179.07 189.8H180.49L183.33 186.96C183.65 186.74 184.43 187.18 184.75 186.96L187.59 184.12C188.46 183.04 188.55 182.4 189.01 181.28C189.19 177.87 189.66 174.56 190.43 171.34C190.49 170.87 190.37 170.38 190.43 169.92C191.54 163.5 192.97 157.34 194.69 151.45C194 151.05 194.03 150.57 194.69 150.03C194.75 149.56 194.63 149.08 194.69 148.61C195.46 144.26 196.4 140 197.53 135.82C197.73 134.98 197.32 133.8 197.53 132.98C198.69 123.05 206.04 122.05 214.59 124.46L214.58 124.47Z" fill="#EBD189"/>
<path d="M140.67 348.92L143.51 351.76C143.72 352.07 143.31 352.8 143.51 353.18C150.25 358.82 145.41 363.86 139.24 367.56L122.19 377.33C121.81 377.52 121.16 377.15 120.77 377.33L116.51 380.17C116.11 380.34 115.49 380 115.09 380.17L110.83 383.01C110.42 383.16 109.84 382.87 109.41 383.01C106.23 384.64 102.92 386.06 99.46 387.27C99.01 387.37 98.5 387.19 98.04 387.27C95.39 387.73 93.97 387.26 93.78 385.85C94.24 385.35 94.72 384.9 95.2 384.43L105.15 374.49C105.44 374.26 106.27 374.72 106.57 374.49C108.64 371.9 111.01 369.53 113.68 367.39C113.99 367.17 114.8 367.62 115.1 367.39C121.65 360.4 128.76 354.24 136.42 348.92C137.64 348.92 139.86 348.65 140.68 348.92H140.67Z" fill="#EBD18A"/>
</svg>
