<svg width="226" height="396" viewBox="0 0 226 396" fill="none" xmlns="http://www.w3.org/2000/svg">
<g clip-path="url(#clip0_27_323)">
<path d="M216.3 120.21C213.75 119.52 210.35 118.37 207.77 118.79C202.08 119.31 198.77 123.1 197.82 130.15C197.71 130.59 197.93 131.12 197.82 131.57L194.98 142.93C194.93 143.4 195.04 143.88 194.98 144.35L190.72 167.08C190.67 167.55 190.76 168.03 190.72 168.5L189.3 179.86C188.55 180.74 186.22 181.79 185.04 182.7C182.32 184.8 179.96 187.17 177.93 189.8C177.63 190.03 176.8 189.57 176.51 189.8C170.7 195.2 165.96 200.89 162.3 206.85C161.79 207.08 161.39 207.51 161.08 208.08C159.6 209.55 158.09 210.98 156.61 212.53C153.87 214.15 151.5 216.51 149.5 219.63C149.28 219.87 148.29 219.39 148.08 219.63C146.8 222.72 144.91 225.09 142.39 226.73C141.46 228.1 140.47 229.61 139.55 230.99C138.81 232.91 138.67 234.78 139.55 236.67C139.86 242.77 139.48 249.02 139.55 255.14L140.97 270.77C140.97 271.24 140.98 271.72 140.97 272.19L142.39 280.71C142.39 281.18 142.38 281.66 142.39 282.13L143.81 292.07C143.81 293.02 143.81 293.96 143.81 294.91C144 295.24 144.18 295.45 144.35 295.55C144.25 295.82 144.53 296.08 145.23 296.33C140.85 295.25 135.54 294.98 131.02 296.33C130.55 296.37 130.07 296.29 129.6 296.33C127.01 296.22 124.64 296.69 122.49 297.75C122.03 297.84 121.51 297.64 121.07 297.75L115.38 300.59C114.97 300.77 114.3 300.39 113.96 300.59C107.88 306.74 103.14 313.84 99.75 321.9C99.58 322.31 99.92 322.92 99.75 323.32L98.33 327.58C95.71 331.51 93 335.6 92.64 340.37C90.22 342.07 88.33 344.92 86.95 348.89C86.77 349.28 87.13 349.92 86.95 350.31C83.69 356.26 80.85 362.41 78.42 368.78C78.31 369.22 78.52 369.75 78.42 370.2L75.58 377.3C75.49 377.75 75.66 378.26 75.58 378.72C73.1 382.63 71.45 394.71 77 388.66C77.59 387.99 77.84 386.62 78.42 385.82L81.26 382.98C82.02 381.92 83.1 380.17 84.1 378.72C84.59 377.02 85.47 375.48 86.94 374.46C87.16 374.15 86.72 373.35 86.94 373.04C88.87 371.56 90.45 369.7 91.2 367.36C91.57 366.82 92.28 366.44 92.62 365.94C95.34 360.83 98.53 355.91 102.57 351.73C102.79 351.41 102.35 350.63 102.57 350.31C106.31 346.61 108.68 342.82 109.68 338.95C113.26 338.14 117.39 332.67 118.21 329.01L121.05 324.75C121.87 324.26 121.88 323.78 121.05 323.33C121.27 323.06 123.74 321.73 123.89 321.91C124.36 321.95 124.84 321.89 125.31 321.91L135.26 320.49C136.19 320.4 137.17 320.59 138.1 320.49L145.21 317.65C145.66 317.57 146.17 317.71 146.63 317.65C148.7 317.28 150.12 316.33 150.89 314.81C151.2 314.41 159.15 312.33 159.42 311.97L162.9 311.01C163.61 302.3 163.23 293.65 162.27 284.98C162.27 284.03 162.27 283.09 162.27 282.14C162.44 276.64 161.96 271.43 160.85 266.51C161.5 263.71 161.5 260.87 160.85 257.99C160.85 256.1 160.88 254.2 160.85 252.31L159.43 243.79C159.34 242.86 159.47 241.89 159.43 240.95C158.3 237.74 159.24 234.42 162.27 231.01C163.05 230.22 166.01 228.49 167.96 226.75C178.73 219.2 188.4 210.48 196.98 200.59L203.49 196.91C203.72 196.65 203.27 195.85 203.49 195.49L206.33 189.81C206.46 189.38 206.21 188.83 206.33 188.39L210.59 177.03C210.69 176.58 210.48 176.06 210.59 175.61L219.12 148.62C219.2 148.16 219.05 147.66 219.12 147.2C220.25 143.52 221.2 139.73 221.96 135.84C222.24 134.09 221.6 131.76 221.96 130.16C227.64 126.5 225.75 123.19 216.27 120.22L216.3 120.21Z" fill="#EED89B"/>
<path d="M18.72 334.72C18.63 334.27 18.79 333.76 18.72 333.3C16.13 331.31 13.36 334.04 11.61 336.14C11.25 336.35 10.49 335.92 10.19 336.14L5.93002 341.82C5.65002 342.05 4.85002 341.6 4.51002 341.82L3.33002 344.15C14.03 360.56 27.04 377.37 41.47 391.54C41.79 391.72 42.41 391.4 42.89 391.54C47.17 393.64 46.94 388.75 45.42 385.72C35.18 369.48 26.28 352.48 18.73 334.72H18.72Z" fill="#EED89B"/>
</g>
<defs>
<clipPath id="clip0_27_323">
<rect width="224.3" height="395.46" fill="white" transform="translate(0.900024)"/>
</clipPath>
</defs>
</svg>
